<svg version="1.1" id="Layer_1" xmlns="http://www.w3.org/2000/svg" xmlns:xlink="http://www.w3.org/1999/xlink" x="0px" y="0px"
	 width="100%" viewBox="0 0 512 512" enable-background="new 0 0 512 512" xml:space="preserve">
<path fill="#FFFFFF" opacity="1.000000" stroke="none" 
	d="
M269.000000,513.000000 
	C179.355087,513.000000 90.210175,513.000000 1.032630,513.000000 
	C1.032630,342.396729 1.032630,171.793442 1.032630,1.095084 
	C171.561600,1.095084 342.123260,1.095084 512.842468,1.095084 
	C512.842468,171.666550 512.842468,342.333252 512.842468,513.000000 
	C431.793427,513.000000 350.646698,513.000000 269.000000,513.000000 
M197.326965,421.702606 
	C199.932022,430.247772 203.907639,433.592865 212.672241,434.355377 
	C215.122513,434.216919 217.572784,434.078461 220.901215,434.073090 
	C223.267654,434.020294 225.634079,433.967468 228.925064,434.080963 
	C243.950623,434.028351 258.976196,433.975739 274.926178,434.089081 
	C282.866364,434.089691 290.806549,434.090332 299.478455,434.544647 
	C305.918915,434.473785 312.359406,434.402924 319.734009,434.562927 
	C329.911682,434.466187 340.089325,434.369415 351.109131,434.566803 
	C355.060120,434.455353 359.011078,434.343903 363.788513,434.534454 
	C365.530396,434.433197 367.272308,434.331970 369.865540,434.535370 
	C372.582214,434.435944 375.298920,434.336517 378.845245,434.538300 
	C381.911438,434.414154 384.977631,434.290009 388.910889,434.316345 
	C392.268677,433.764130 395.626495,433.211914 399.673615,432.544342 
	C403.135010,430.738403 406.596436,428.932495 410.710052,426.927307 
	C413.887390,423.654724 417.064697,420.382111 420.820862,416.756226 
	C425.829681,409.388397 428.074738,401.268585 428.059906,392.344299 
	C427.983154,346.245544 428.027435,300.146637 428.015625,254.047760 
	C428.015259,252.596588 427.864166,251.145447 427.768890,249.434448 
	C424.615204,249.579803 421.809113,249.709122 418.117554,249.621277 
	C415.098053,249.690308 412.078552,249.759338 408.339508,249.525452 
	C405.212830,249.627090 402.086121,249.728714 398.068115,249.616425 
	C394.712341,249.689240 391.356598,249.762054 387.114349,249.611938 
	C384.077972,249.685974 381.041565,249.760010 377.125916,249.612183 
	C374.418610,249.687668 371.711273,249.763153 368.168365,249.611099 
	C366.448029,249.686508 364.727692,249.761932 362.171814,249.605804 
	C360.450500,249.682312 358.729156,249.758820 356.172272,249.599777 
	C354.168640,249.516556 352.165039,249.433334 350.122437,248.495667 
	C350.051392,241.662247 349.980316,234.828827 350.074066,227.071228 
	C350.019257,208.046646 349.964447,189.022064 350.075745,169.073166 
	C350.075745,139.526993 350.075745,109.980812 350.075745,80.602196 
	C349.340729,80.298721 349.048431,80.072235 348.756226,80.072395 
	C315.171112,80.090805 281.585999,80.126060 247.073349,80.016258 
	C230.715912,80.064514 214.358490,80.112762 197.073410,80.017731 
	C182.049484,80.066307 167.025574,80.114891 151.074081,80.019783 
	C146.257980,80.012718 141.441513,79.964912 136.625870,80.008011 
	C129.182175,80.074631 122.191154,81.734215 115.338005,86.201363 
	C106.108589,92.460716 100.178383,100.907753 98.025360,112.914993 
	C97.962914,118.942345 97.900467,124.969704 97.618378,131.914169 
	C97.690880,139.277054 97.763382,146.639954 97.616463,154.919037 
	C97.689926,166.945999 97.763397,178.972946 97.621216,191.917282 
	C97.692917,202.611404 97.764618,213.305527 97.618195,224.916840 
	C97.690865,232.944046 97.763535,240.971252 97.622635,249.916672 
	C97.694168,259.944977 97.765701,269.973267 97.622818,280.919006 
	C97.798935,294.612274 97.975052,308.305573 98.087212,322.725647 
	C100.333305,330.806000 106.328758,334.282166 114.889366,335.933044 
	C123.053169,337.179779 131.576996,337.328033 139.317947,339.864990 
	C171.403854,350.380768 189.914948,373.040161 196.076904,406.818542 
	C196.417175,409.534912 196.757446,412.251282 196.939667,415.823883 
	C197.073792,417.544952 197.207916,419.266052 197.326965,421.702606 
M177.096085,390.933502 
	C177.096085,390.933502 177.193115,390.879791 177.121628,390.183899 
	C176.149124,388.435791 175.176636,386.687714 174.106339,384.208466 
	C170.797638,379.483551 167.971069,374.309021 164.075455,370.131378 
	C156.926651,362.465027 148.656708,356.181488 137.756409,353.246674 
	C135.504013,352.532196 133.251633,351.817719 130.272736,350.789062 
	C125.848030,350.234711 121.423332,349.680359 116.330589,348.997925 
	C115.881187,349.041321 115.431786,349.084717 114.502007,349.035400 
	C114.502007,349.035400 114.031548,349.169739 113.292198,349.108551 
	C111.863281,349.506744 110.434357,349.904968 108.345604,350.415894 
	C106.130493,351.907471 103.915375,353.399078 101.124542,355.222168 
	C100.303780,356.781738 99.483009,358.341278 98.212471,360.483337 
	C94.670265,376.378204 105.378845,382.324890 115.521126,383.974060 
	C120.043724,384.709381 124.500206,385.851318 129.575211,387.183868 
	C138.595947,392.012726 144.535919,399.337128 147.560532,410.050781 
	C147.751038,412.349579 147.796600,414.671539 148.159164,416.942871 
	C149.260651,423.843842 151.375763,430.249084 158.573227,433.147552 
	C164.732086,435.627716 170.762344,435.533661 176.813751,430.811340 
	C178.553665,427.543152 180.293579,424.274963 182.430054,420.304657 
	C182.576370,417.870392 182.722687,415.436127 182.980621,412.188019 
	C182.608078,409.791809 182.235535,407.395599 181.933380,404.215424 
	C180.619095,400.144775 179.304810,396.074127 177.937271,391.451813 
	C177.648804,391.242950 177.360321,391.034119 177.096085,390.933502 
M123.663574,432.648529 
	C131.325943,428.256897 134.426468,421.723724 132.935638,412.271118 
	C129.832962,403.234161 124.577332,399.106995 115.172142,398.844177 
	C106.594879,399.307098 100.978531,403.374115 98.151360,411.351288 
	C96.413704,419.195953 98.159019,426.027527 104.697174,430.952881 
	C110.287964,435.164520 116.531113,435.955017 123.663574,432.648529 
z"/>
<path fill="#00A7F9" opacity="1.000000" stroke="none" 
	d="
M97.837234,280.001587 
	C97.765701,269.973267 97.694168,259.944977 98.111649,249.461639 
	C100.794044,250.844589 102.964531,252.710785 105.185158,254.515274 
	C111.576904,259.709229 118.067574,264.784790 124.369072,270.085541 
	C129.795929,274.650574 134.948151,279.540955 140.343124,284.145325 
	C149.375305,291.853912 158.574921,299.367126 167.572235,307.115631 
	C176.458023,314.768158 185.127060,322.671997 193.987823,330.354095 
	C205.367691,340.220245 216.830307,349.991211 228.284988,359.770721 
	C233.497086,364.220612 238.775620,368.592651 244.119568,373.460632 
	C244.215118,382.523010 244.215118,391.124786 244.215118,400.293488 
	C246.742783,400.293488 248.688889,400.278534 250.634705,400.295929 
	C263.418671,400.410187 276.202576,400.531494 289.003845,400.970520 
	C289.931122,402.610535 290.622498,404.177521 291.787964,405.208649 
	C297.442169,410.210999 303.286804,414.998077 308.939636,420.001862 
	C313.424957,423.972168 317.730621,428.145416 321.867615,432.446289 
	C320.750793,432.778442 319.882385,432.892822 318.589844,433.013916 
	C311.692688,433.377380 305.219727,433.734161 298.746735,434.090942 
	C290.806549,434.090332 282.866364,434.089691 274.498840,433.666809 
	C273.474030,431.422760 273.431244,428.975037 272.192261,427.877106 
	C261.060791,418.012726 249.726318,408.377136 238.436737,398.691498 
	C231.015701,392.324860 223.539978,386.021698 216.143066,379.627289 
	C205.269989,370.227844 194.523529,360.680511 183.578735,351.365845 
	C172.101746,341.598297 160.347794,332.155151 148.909027,322.343903 
	C135.320526,310.688751 122.008720,298.710907 108.416298,287.060394 
	C105.220818,284.321411 101.380753,282.334503 97.837234,280.001587 
z"/>
<path fill="#0183D7" opacity="1.000000" stroke="none" 
	d="
M349.909637,169.997482 
	C349.964447,189.022064 350.019257,208.046646 349.641724,227.465851 
	C346.427979,223.742020 344.330536,218.859955 340.740387,215.644577 
	C328.692291,204.854141 316.304840,194.414032 303.618195,184.382523 
	C299.780212,181.347763 297.337250,175.860001 291.199219,175.532745 
	C291.106628,163.922394 291.142334,152.773865 291.064575,141.626144 
	C291.010590,133.886612 287.137207,129.937149 279.454315,129.821152 
	C270.971619,129.693085 262.486389,129.730865 253.994446,129.343109 
	C253.162216,127.426582 252.722397,125.378784 251.455399,124.373085 
	C233.674316,110.259254 218.121902,93.386803 198.535767,81.502701 
	C198.207153,81.303307 198.172745,80.619026 198.001053,80.161011 
	C214.358490,80.112762 230.715912,80.064514 247.603485,80.426788 
	C252.996567,84.363228 258.068085,87.637650 262.681580,91.464325 
	C274.417236,101.198502 285.956512,111.169731 297.558594,121.064590 
	C311.049713,132.570541 324.638519,143.966309 337.938751,155.689194 
	C342.152069,159.402863 347.721558,162.359634 348.322754,169.048615 
	C348.355225,169.409531 349.358368,169.683197 349.909637,169.997482 
z"/>
<path fill="#01ABFC" opacity="1.000000" stroke="none" 
	d="
M97.730026,280.460297 
	C101.380753,282.334503 105.220818,284.321411 108.416298,287.060394 
	C122.008720,298.710907 135.320526,310.688751 148.909027,322.343903 
	C160.347794,332.155151 172.101746,341.598297 183.578735,351.365845 
	C194.523529,360.680511 205.269989,370.227844 216.143066,379.627289 
	C223.539978,386.021698 231.015701,392.324860 238.436737,398.691498 
	C249.726318,408.377136 261.060791,418.012726 272.192261,427.877106 
	C273.431244,428.975037 273.474030,431.422760 274.036621,433.583801 
	C258.976196,433.975739 243.950623,434.028351 228.424850,433.659119 
	C223.942932,429.318237 220.184891,425.134064 215.927170,421.542175 
	C209.527359,416.143158 202.777603,411.158966 196.176636,405.998413 
	C189.914948,373.040161 171.403854,350.380768 139.317947,339.864990 
	C131.576996,337.328033 123.053169,337.179779 114.439636,335.463837 
	C111.052399,332.025848 108.279884,328.864319 105.117973,326.157684 
	C103.092911,324.424225 100.493233,323.362000 98.151154,321.998840 
	C97.975052,308.305573 97.798935,294.612274 97.730026,280.460297 
z"/>
<path fill="#02A4F5" opacity="1.000000" stroke="none" 
	d="
M244.024033,373.000000 
	C238.775620,368.592651 233.497086,364.220612 228.284988,359.770721 
	C216.830307,349.991211 205.367691,340.220245 193.987823,330.354095 
	C185.127060,322.671997 176.458023,314.768158 167.572235,307.115631 
	C158.574921,299.367126 149.375305,291.853912 140.343124,284.145325 
	C134.948151,279.540955 129.795929,274.650574 124.369072,270.085541 
	C118.067574,264.784790 111.576904,259.709229 105.185158,254.515274 
	C102.964531,252.710785 100.794044,250.844589 98.218430,249.002533 
	C97.763535,240.971252 97.690865,232.944046 98.086708,224.486069 
	C99.510666,224.678101 100.547302,225.205444 101.409081,225.938385 
	C110.624573,233.776047 119.815704,241.642365 129.006470,249.509064 
	C133.885010,253.684769 138.623154,258.037048 143.660461,262.010742 
	C147.750763,265.237396 152.192596,268.018433 156.536438,271.455933 
	C156.647827,274.720428 156.551804,277.538635 156.786148,280.329132 
	C157.263687,286.015228 161.055099,289.929962 166.718613,290.006195 
	C176.452377,290.137177 186.191437,289.875488 196.066986,290.102234 
	C203.569962,296.816864 210.889771,303.260010 218.308685,309.586945 
	C229.868454,319.445221 241.495514,329.224579 252.937988,339.337036 
	C246.949570,344.591370 244.428375,351.043152 244.267319,358.545685 
	C244.163910,363.363312 244.103653,368.181854 244.024033,373.000000 
z"/>
<path fill="#0097EA" opacity="1.000000" stroke="none" 
	d="
M97.835876,154.002838 
	C97.763382,146.639954 97.690880,139.277054 98.089294,131.484695 
	C102.216980,134.285095 105.804352,137.597855 109.543556,140.729294 
	C120.776634,150.136566 131.994995,159.564377 143.377167,168.789108 
	C147.514740,172.142441 152.098236,174.945541 156.533051,178.455963 
	C156.601852,180.070084 156.618698,181.227890 156.629456,182.385773 
	C156.728806,193.069839 159.586639,195.964478 170.100983,195.989182 
	C176.552933,196.004333 183.014832,196.202377 189.452774,195.901550 
	C192.661209,195.751633 195.825912,194.665161 199.359100,194.036438 
	C200.289062,194.368134 200.949402,194.570374 201.439880,194.977341 
	C211.451920,203.284744 221.380646,211.694031 231.470490,219.905472 
	C235.881882,223.495621 240.614838,226.690613 245.144196,230.479401 
	C244.811996,233.513367 244.316803,236.131546 244.299561,238.752884 
	C244.207123,252.816055 244.233719,266.880005 243.857178,280.933014 
	C241.561935,279.231873 239.622574,277.548340 237.696548,275.849701 
	C230.547455,269.544647 223.528183,263.083984 216.206284,256.986603 
	C212.227249,253.673019 207.736450,250.974030 203.375748,247.540283 
	C203.255264,243.270889 203.300308,239.457336 203.201996,235.647507 
	C203.008362,228.141693 198.891708,224.102753 191.377655,224.007690 
	C184.585907,223.921783 177.793472,223.891098 171.067108,223.504730 
	C172.375549,222.238831 173.618256,221.304230 175.721909,219.722122 
	C173.226715,217.460266 171.105804,215.409241 168.851807,213.516708 
	C159.093628,205.323441 149.203979,197.284317 139.537918,188.984451 
	C128.351990,179.379593 117.397125,169.505905 106.233566,159.874542 
	C103.660759,157.654846 100.646820,155.946503 97.835876,154.002838 
z"/>
<path fill="#007ED3" opacity="1.000000" stroke="none" 
	d="
M349.992676,169.535324 
	C349.358368,169.683197 348.355225,169.409531 348.322754,169.048615 
	C347.721558,162.359634 342.152069,159.402863 337.938751,155.689194 
	C324.638519,143.966309 311.049713,132.570541 297.558594,121.064590 
	C285.956512,111.169731 274.417236,101.198502 262.681580,91.464325 
	C258.068085,87.637650 252.996567,84.363228 248.067261,80.498856 
	C281.585999,80.126060 315.171112,80.090805 348.756226,80.072395 
	C349.048431,80.072235 349.340729,80.298721 350.075745,80.602196 
	C350.075745,109.980812 350.075745,139.526993 349.992676,169.535324 
z"/>
<path fill="#008CE0" opacity="1.000000" stroke="none" 
	d="
M116.003677,86.089035 
	C122.191154,81.734215 129.182175,80.074631 136.625870,80.008011 
	C141.441513,79.964912 146.257980,80.012718 151.609344,80.432640 
	C156.359146,83.326637 160.899857,85.391014 164.717697,88.379028 
	C171.818069,93.936127 178.517731,100.007706 185.347382,105.907715 
	C200.383392,118.897041 215.408096,131.899506 230.411972,144.925903 
	C234.991150,148.901566 239.487350,152.972778 244.121475,157.459991 
	C244.247757,167.587448 244.274109,177.255112 243.934113,186.920990 
	C242.722229,186.453247 241.747803,186.129990 241.050461,185.500031 
	C230.060379,175.572205 219.131927,165.575958 208.108719,155.685257 
	C206.808365,154.518509 205.033005,153.881134 203.376602,152.540924 
	C203.255508,148.446274 203.302109,144.807205 203.201859,141.172180 
	C202.998962,133.814911 199.157135,129.907013 191.771469,129.836319 
	C182.515442,129.747726 173.257217,129.888901 163.999420,129.551514 
	C163.520950,127.817017 163.445969,125.998856 162.502945,125.178215 
	C152.756393,116.696526 142.899506,108.340454 133.010452,100.024178 
	C127.401772,95.307503 121.676460,90.729492 116.003677,86.089035 
z"/>
<path fill="#018ADE" opacity="1.000000" stroke="none" 
	d="
M291.279114,175.994904 
	C297.337250,175.860001 299.780212,181.347763 303.618195,184.382523 
	C316.304840,194.414032 328.692291,204.854141 340.740387,215.644577 
	C344.330536,218.859955 346.427979,223.742020 349.559326,227.927933 
	C349.980316,234.828827 350.051392,241.662247 350.098053,249.432220 
	C350.029388,254.249863 349.985107,258.130951 349.572998,262.052002 
	C343.638977,264.730652 341.026520,259.959473 337.877136,257.258270 
	C327.961639,248.753799 318.379456,239.861542 308.496246,231.318359 
	C298.726593,222.873306 288.904236,214.472763 278.785309,206.456177 
	C274.604614,203.144073 269.584778,200.893707 264.960876,198.136505 
	C263.944122,197.530243 262.987976,196.822311 262.467590,196.091217 
	C268.045197,196.012024 273.159271,196.021072 278.273041,195.989563 
	C286.982452,195.935928 290.992920,191.972855 291.086090,183.403091 
	C291.112946,180.933289 291.212769,178.464279 291.279114,175.994904 
z"/>
<path fill="#0088DC" opacity="1.000000" stroke="none" 
	d="
M244.021576,157.000214 
	C239.487350,152.972778 234.991150,148.901566 230.411972,144.925903 
	C215.408096,131.899506 200.383392,118.897041 185.347382,105.907715 
	C178.517731,100.007706 171.818069,93.936127 164.717697,88.379028 
	C160.899857,85.391014 156.359146,83.326637 152.073120,80.504486 
	C167.025574,80.114891 182.049484,80.066307 197.537231,80.089371 
	C198.172745,80.619026 198.207153,81.303307 198.535767,81.502701 
	C218.121902,93.386803 233.674316,110.259254 251.455399,124.373085 
	C252.722397,125.378784 253.162216,127.426582 253.636627,129.454895 
	C246.867722,132.065323 244.479385,135.131119 244.279388,141.729599 
	C244.125183,146.817734 244.102646,151.909866 244.021576,157.000214 
z"/>
<path fill="#019DEF" opacity="1.000000" stroke="none" 
	d="
M97.726166,154.460938 
	C100.646820,155.946503 103.660759,157.654846 106.233566,159.874542 
	C117.397125,169.505905 128.351990,179.379593 139.537918,188.984451 
	C149.203979,197.284317 159.093628,205.323441 168.851807,213.516708 
	C171.105804,215.409241 173.226715,217.460266 175.721909,219.722122 
	C173.618256,221.304230 172.375549,222.238831 170.644257,223.575623 
	C160.159241,224.115311 157.136307,227.214279 156.128693,237.998199 
	C154.110855,237.089493 152.229156,236.432983 150.812408,235.229218 
	C145.656403,230.848267 140.719223,226.210434 135.582108,221.806412 
	C127.584114,214.949799 119.547089,208.135971 111.414009,201.440765 
	C107.008659,197.814255 102.370171,194.470963 97.836853,190.999908 
	C97.763397,178.972946 97.689926,166.945999 97.726166,154.460938 
z"/>
<path fill="#0085E0" opacity="1.000000" stroke="none" 
	d="
M398.984283,432.659698 
	C395.626495,433.211914 392.268677,433.764130 388.464386,433.760956 
	C388.012177,372.082001 388.006500,310.958435 388.000824,249.834869 
	C391.356598,249.762054 394.712341,249.689240 398.525848,250.203888 
	C398.983795,311.414124 398.984039,372.036926 398.984283,432.659698 
z"/>
<path fill="#0192E5" opacity="1.000000" stroke="none" 
	d="
M115.670837,86.145203 
	C121.676460,90.729492 127.401772,95.307503 133.010452,100.024178 
	C142.899506,108.340454 152.756393,116.696526 162.502945,125.178215 
	C163.445969,125.998856 163.520950,127.817017 163.726669,129.763367 
	C158.574356,132.595200 156.532440,136.482651 156.607162,141.755280 
	C156.674454,146.501526 156.529587,151.250778 156.126007,155.997437 
	C154.456894,155.441803 152.904388,155.166992 151.861450,154.287750 
	C144.974899,148.482224 138.235535,142.502533 131.375824,136.664627 
	C122.461060,129.077789 113.554207,121.477074 104.455154,114.115700 
	C102.856293,112.822182 100.330704,112.674171 98.233093,111.997139 
	C100.178383,100.907753 106.108589,92.460716 115.670837,86.145203 
z"/>
<path fill="#00A0F3" opacity="1.000000" stroke="none" 
	d="
M97.729034,191.458588 
	C102.370171,194.470963 107.008659,197.814255 111.414009,201.440765 
	C119.547089,208.135971 127.584114,214.949799 135.582108,221.806412 
	C140.719223,226.210434 145.656403,230.848267 150.812408,235.229218 
	C152.229156,236.432983 154.110855,237.089493 156.184998,238.463013 
	C156.553360,249.618301 156.515961,260.307709 156.478546,270.997101 
	C152.192596,268.018433 147.750763,265.237396 143.660461,262.010742 
	C138.623154,258.037048 133.885010,253.684769 129.006470,249.509064 
	C119.815704,241.642365 110.624573,233.776047 101.409081,225.938385 
	C100.547302,225.205444 99.510666,224.678101 98.195770,224.027466 
	C97.764618,213.305527 97.692917,202.611404 97.729034,191.458588 
z"/>
<path fill="#0183D7" opacity="1.000000" stroke="none" 
	d="
M387.557587,249.723404 
	C388.006500,310.958435 388.012177,372.082001 388.030853,433.685730 
	C384.977631,434.290009 381.911438,434.414154 378.424194,433.971924 
	C378.003845,372.215057 378.004517,311.024567 378.005188,249.834045 
	C381.041565,249.760010 384.077972,249.685974 387.557587,249.723404 
z"/>
<path fill="#038CEA" opacity="1.000000" stroke="none" 
	d="
M399.328949,432.602020 
	C398.984039,372.036926 398.983795,311.414124 398.971497,250.310852 
	C402.086121,249.728714 405.212830,249.627090 408.681458,250.157166 
	C409.015564,307.638885 408.997375,364.488892 409.044556,421.338898 
	C409.046173,423.268402 409.705231,425.197357 410.057861,427.126587 
	C406.596436,428.932495 403.135010,430.738403 399.328949,432.602020 
z"/>
<path fill="#0090F3" opacity="1.000000" stroke="none" 
	d="
M410.383972,427.026947 
	C409.705231,425.197357 409.046173,423.268402 409.044556,421.338898 
	C408.997375,364.488892 409.015564,307.638885 409.041199,250.308609 
	C412.078552,249.759338 415.098053,249.690308 418.559296,250.210892 
	C419.000671,304.219055 418.986786,357.637665 419.052429,411.056122 
	C419.054932,413.074402 419.828033,415.091736 420.242004,417.109497 
	C417.064697,420.382111 413.887390,423.654724 410.383972,427.026947 
z"/>
<path fill="#007BCF" opacity="1.000000" stroke="none" 
	d="
M377.565552,249.723114 
	C378.004517,311.024567 378.003845,372.215057 378.009399,433.821289 
	C375.298920,434.336517 372.582214,434.435944 369.433868,433.967468 
	C369.002777,372.212585 369.003387,311.025604 369.003967,249.838623 
	C371.711273,249.763153 374.418610,249.687668 377.565552,249.723114 
z"/>
<path fill="#0065AA" opacity="1.000000" stroke="none" 
	d="
M349.940796,262.012054 
	C349.985107,258.130951 350.029388,254.249863 350.117554,249.859451 
	C352.165039,249.433334 354.168640,249.516556 356.587769,250.198242 
	C357.003235,311.722473 357.003235,372.648254 357.003235,433.615845 
	C354.196625,433.889526 352.231812,434.081116 350.266998,434.272705 
	C340.089325,434.369415 329.911682,434.466187 319.350189,434.235779 
	C318.966675,433.607361 318.982574,433.306885 319.014008,433.007233 
	C319.882385,432.892822 320.750793,432.778442 322.245483,432.389893 
	C334.812988,428.494080 343.329163,421.288055 347.320496,408.809082 
	C348.408813,405.056030 349.810730,401.542999 349.883057,398.002869 
	C350.141632,385.344757 349.949310,372.677490 349.961853,359.544373 
	C349.975861,343.054077 349.955597,327.033051 349.962402,310.543304 
	C349.973236,294.053741 349.957031,278.032898 349.940796,262.012054 
z"/>
<path fill="#0195FB" opacity="1.000000" stroke="none" 
	d="
M420.531433,416.932861 
	C419.828033,415.091736 419.054932,413.074402 419.052429,411.056122 
	C418.986786,357.637665 419.000671,304.219055 419.002014,250.319473 
	C421.809113,249.709122 424.615204,249.579803 427.768890,249.434448 
	C427.864166,251.145447 428.015259,252.596588 428.015625,254.047760 
	C428.027435,300.146637 427.983154,346.245544 428.059906,392.344299 
	C428.074738,401.268585 425.829681,409.388397 420.531433,416.932861 
z"/>
<path fill="#0196E9" opacity="1.000000" stroke="none" 
	d="
M98.129227,112.456070 
	C100.330704,112.674171 102.856293,112.822182 104.455154,114.115700 
	C113.554207,121.477074 122.461060,129.077789 131.375824,136.664627 
	C138.235535,142.502533 144.974899,148.482224 151.861450,154.287750 
	C152.904388,155.166992 154.456894,155.441803 156.182098,156.462250 
	C156.553085,163.952118 156.515686,170.975906 156.478287,177.999695 
	C152.098236,174.945541 147.514740,172.142441 143.377167,168.789108 
	C131.994995,159.564377 120.776634,150.136566 109.543556,140.729294 
	C105.804352,137.597855 102.216980,134.285095 98.199112,131.026138 
	C97.900467,124.969704 97.962914,118.942345 98.129227,112.456070 
z"/>
<path fill="#006CB6" opacity="1.000000" stroke="none" 
	d="
M350.688049,434.419739 
	C352.231812,434.081116 354.196625,433.889526 357.003235,433.615845 
	C357.003235,372.648254 357.003235,311.722473 357.005554,250.316010 
	C358.729156,249.758820 360.450500,249.682312 362.587219,250.202225 
	C362.989105,311.943237 362.975586,373.087860 362.962067,434.232422 
	C359.011078,434.343903 355.060120,434.455353 350.688049,434.419739 
z"/>
<path fill="#0074C3" opacity="1.000000" stroke="none" 
	d="
M363.375305,434.383453 
	C362.975586,373.087860 362.989105,311.943237 363.004974,250.317993 
	C364.727692,249.761932 366.448029,249.686508 368.586182,249.724869 
	C369.003387,311.025604 369.002777,372.212585 369.008179,433.815125 
	C367.272308,434.331970 365.530396,434.433197 363.375305,434.383453 
z"/>
<path fill="#34C2AD" opacity="1.000000" stroke="none" 
	d="
M147.382675,409.167175 
	C144.535919,399.337128 138.595947,392.012726 129.275864,386.642700 
	C128.579132,385.235352 128.400513,384.123657 127.748787,383.542969 
	C123.567612,379.817719 119.366905,376.104523 115.010422,372.588318 
	C109.643692,368.256714 104.118782,364.121155 98.662239,359.900848 
	C99.483009,358.341278 100.303780,356.781738 101.779594,355.109344 
	C112.461113,363.336151 122.573509,371.575104 132.492645,380.040497 
	C145.332703,390.998688 157.952332,402.215454 170.814835,413.146820 
	C174.278992,416.090851 178.279312,418.403992 182.033493,421.006775 
	C180.293579,424.274963 178.553665,427.543152 176.185516,430.798615 
	C168.420975,424.733185 161.359329,418.588593 154.098190,412.689545 
	C152.175079,411.127197 149.637894,410.320709 147.382675,409.167175 
z"/>
<path fill="#28BDBE" opacity="1.000000" stroke="none" 
	d="
M182.231781,420.655701 
	C178.279312,418.403992 174.278992,416.090851 170.814835,413.146820 
	C157.952332,402.215454 145.332703,390.998688 132.492645,380.040497 
	C122.573509,371.575104 112.461113,363.336151 102.067451,354.943604 
	C103.915375,353.399078 106.130493,351.907471 108.725250,350.682098 
	C118.166862,359.163269 127.113602,367.510010 136.321213,375.558350 
	C146.793243,384.711792 157.397476,393.721527 168.149139,402.544006 
	C172.790848,406.352814 177.946716,409.535004 182.868988,413.001862 
	C182.722687,415.436127 182.576370,417.870392 182.231781,420.655701 
z"/>
<path fill="#70D94C" opacity="1.000000" stroke="none" 
	d="
M132.882736,413.010284 
	C134.426468,421.723724 131.325943,428.256897 123.291763,432.386902 
	C114.833084,425.017426 106.746216,417.909546 98.659348,410.801697 
	C100.978531,403.374115 106.594879,399.307098 115.624527,399.258301 
	C119.711105,403.107971 123.228172,406.681335 127.034134,409.914642 
	C128.675644,411.309113 130.914993,411.999847 132.882736,413.010284 
z"/>
<path fill="#15B6DF" opacity="1.000000" stroke="none" 
	d="
M177.990509,392.003479 
	C179.304810,396.074127 180.619095,400.144775 181.540894,404.602936 
	C180.375656,404.739655 179.428055,404.694031 178.856644,404.207031 
	C171.294189,397.761719 163.822754,391.209534 156.252365,384.773712 
	C146.417328,376.412567 136.400116,368.261566 126.699730,359.748444 
	C123.117569,356.604675 120.212509,352.689392 116.998627,349.126007 
	C121.423332,349.680359 125.848030,350.234711 130.639557,351.308167 
	C131.870209,353.148163 132.489166,354.751404 133.636063,355.745880 
	C144.364639,365.049164 155.100861,374.347809 166.025391,383.418365 
	C169.451263,386.262878 173.454269,388.412262 177.193115,390.879791 
	C177.193115,390.879791 177.096085,390.933502 177.156921,391.131897 
	C177.475342,391.554688 177.732925,391.779083 177.990509,392.003479 
z"/>
<path fill="#1EB9D0" opacity="1.000000" stroke="none" 
	d="
M116.664612,349.061951 
	C120.212509,352.689392 123.117569,356.604675 126.699730,359.748444 
	C136.400116,368.261566 146.417328,376.412567 156.252365,384.773712 
	C163.822754,391.209534 171.294189,397.761719 178.856644,404.207031 
	C179.428055,404.694031 180.375656,404.739655 181.505692,404.994934 
	C182.235535,407.395599 182.608078,409.791809 182.924805,412.594940 
	C177.946716,409.535004 172.790848,406.352814 168.149139,402.544006 
	C157.397476,393.721527 146.793243,384.711792 136.321213,375.558350 
	C127.113602,367.510010 118.166862,359.163269 109.055168,350.625732 
	C110.434357,349.904968 111.863281,349.506744 113.754807,349.281708 
	C114.472404,349.345947 114.727394,349.237030 114.982391,349.128113 
	C115.431786,349.084717 115.881187,349.041321 116.664612,349.061951 
z"/>
<path fill="#46C990" opacity="1.000000" stroke="none" 
	d="
M147.471603,409.608978 
	C149.637894,410.320709 152.175079,411.127197 154.098190,412.689545 
	C161.359329,418.588593 168.420975,424.733185 175.875717,430.934692 
	C170.762344,435.533661 164.732086,435.627716 158.573227,433.147552 
	C151.375763,430.249084 149.260651,423.843842 148.159164,416.942871 
	C147.796600,414.671539 147.751038,412.349579 147.471603,409.608978 
z"/>
<path fill="#46C990" opacity="1.000000" stroke="none" 
	d="
M98.437355,360.192078 
	C104.118782,364.121155 109.643692,368.256714 115.010422,372.588318 
	C119.366905,376.104523 123.567612,379.817719 127.748787,383.542969 
	C128.400513,384.123657 128.579132,385.235352 128.981598,386.455109 
	C124.500206,385.851318 120.043724,384.709381 115.521126,383.974060 
	C105.378845,382.324890 94.670265,376.378204 98.437355,360.192078 
z"/>
<path fill="#81E030" opacity="1.000000" stroke="none" 
	d="
M98.405350,411.076477 
	C106.746216,417.909546 114.833084,425.017426 122.967407,432.454590 
	C116.531113,435.955017 110.287964,435.164520 104.697174,430.952881 
	C98.159019,426.027527 96.413704,419.195953 98.405350,411.076477 
z"/>
<path fill="#01ABFC" opacity="1.000000" stroke="none" 
	d="
M138.033066,353.890900 
	C148.656708,356.181488 156.926651,362.465027 164.075455,370.131378 
	C167.971069,374.309021 170.797638,379.483551 173.793198,384.564362 
	C173.014694,384.757660 172.449966,384.712524 172.098434,384.415283 
	C162.880096,376.620148 153.629257,368.861572 144.520645,360.939667 
	C142.125961,358.856995 140.183289,356.254639 138.033066,353.890900 
z"/>
<path fill="#07A7F6" opacity="1.000000" stroke="none" 
	d="
M196.126770,406.408478 
	C202.777603,411.158966 209.527359,416.143158 215.927170,421.542175 
	C220.184891,425.134064 223.942932,429.318237 227.962585,433.575989 
	C225.634079,433.967468 223.267654,434.020294 220.419983,433.664154 
	C216.074402,429.708649 212.369873,425.964111 208.297150,422.675568 
	C204.781525,419.836884 200.847031,417.516937 197.097717,414.967651 
	C196.757446,412.251282 196.417175,409.534912 196.126770,406.408478 
z"/>
<path fill="#07A7F6" opacity="1.000000" stroke="none" 
	d="
M137.894745,353.568787 
	C140.183289,356.254639 142.125961,358.856995 144.520645,360.939667 
	C153.629257,368.861572 162.880096,376.620148 172.098434,384.415283 
	C172.449966,384.712524 173.014694,384.757660 173.842102,384.929932 
	C175.176636,386.687714 176.149124,388.435791 177.157379,390.531860 
	C173.454269,388.412262 169.451263,386.262878 166.025391,383.418365 
	C155.100861,374.347809 144.364639,365.049164 133.636063,355.745880 
	C132.489166,354.751404 131.870209,353.148163 131.002808,351.465271 
	C133.251633,351.817719 135.504013,352.532196 137.894745,353.568787 
z"/>
<path fill="#15B6DF" opacity="1.000000" stroke="none" 
	d="
M197.018692,415.395752 
	C200.847031,417.516937 204.781525,419.836884 208.297150,422.675568 
	C212.369873,425.964111 216.074402,429.708649 219.980911,433.597626 
	C217.572784,434.078461 215.122513,434.216919 212.303802,433.852722 
	C207.070923,429.229095 202.206482,425.108124 197.342041,420.987122 
	C197.207916,419.266052 197.073792,417.544952 197.018692,415.395752 
z"/>
<path fill="#46C990" opacity="1.000000" stroke="none" 
	d="
M132.909180,412.640686 
	C130.914993,411.999847 128.675644,411.309113 127.034134,409.914642 
	C123.228172,406.681335 119.711105,403.107971 116.042221,399.325073 
	C124.577332,399.106995 129.832962,403.234161 132.909180,412.640686 
z"/>
<path fill="#07A7F6" opacity="1.000000" stroke="none" 
	d="
M98.119186,322.362244 
	C100.493233,323.362000 103.092911,324.424225 105.117973,326.157684 
	C108.279884,328.864319 111.052399,332.025848 113.998993,335.342590 
	C106.328758,334.282166 100.333305,330.806000 98.119186,322.362244 
z"/>
<path fill="#1EB9D0" opacity="1.000000" stroke="none" 
	d="
M197.334503,421.344849 
	C202.206482,425.108124 207.070923,429.229095 211.968201,433.699738 
	C203.907639,433.592865 199.932022,430.247772 197.334503,421.344849 
z"/>
<path fill="#07A7F6" opacity="1.000000" stroke="none" 
	d="
M318.589844,433.013916 
	C318.982574,433.306885 318.966675,433.607361 318.883118,434.120361 
	C312.359406,434.402924 305.918915,434.473785 299.112610,434.317810 
	C305.219727,433.734161 311.692688,433.377380 318.589844,433.013916 
z"/>
<path fill="#15B6DF" opacity="1.000000" stroke="none" 
	d="
M114.742203,349.081787 
	C114.727394,349.237030 114.472404,349.345947 114.124481,349.312317 
	C114.031548,349.169739 114.502007,349.035400 114.742203,349.081787 
z"/>
<path fill="#07A7F6" opacity="1.000000" stroke="none" 
	d="
M177.963898,391.727661 
	C177.732925,391.779083 177.475342,391.554688 177.144806,391.077789 
	C177.360321,391.034119 177.648804,391.242950 177.963898,391.727661 
z"/>
<path fill="#FDFEFF" opacity="1.000000" stroke="none" 
	d="
M244.119568,373.460632 
	C244.103653,368.181854 244.163910,363.363312 244.267319,358.545685 
	C244.428375,351.043152 246.949570,344.591370 253.271515,339.228516 
	C268.023743,328.380035 286.903870,336.465088 290.431000,352.125702 
	C291.293152,355.953735 291.026581,360.035950 291.197693,364.463257 
	C291.106232,375.394196 291.176697,385.864594 290.992889,396.330505 
	C290.967377,397.781830 289.686310,399.211060 288.986511,400.650513 
	C276.202576,400.531494 263.418671,400.410187 250.634705,400.295929 
	C248.688889,400.278534 246.742783,400.293488 244.215118,400.293488 
	C244.215118,391.124786 244.215118,382.523010 244.119568,373.460632 
z"/>
<path fill="#00A0F3" opacity="1.000000" stroke="none" 
	d="
M289.003845,400.970520 
	C289.686310,399.211060 290.967377,397.781830 290.992889,396.330505 
	C291.176697,385.864594 291.106232,375.394196 291.562988,364.463318 
	C293.469574,364.631470 295.171936,364.967407 296.350708,365.938751 
	C304.786896,372.890381 313.150299,379.931671 321.470612,387.022217 
	C330.027557,394.314453 338.509430,401.694824 347.024139,409.036652 
	C343.329163,421.288055 334.812988,428.494080 322.493927,432.172150 
	C317.730621,428.145416 313.424957,423.972168 308.939636,420.001862 
	C303.286804,414.998077 297.442169,410.210999 291.787964,405.208649 
	C290.622498,404.177521 289.931122,402.610535 289.003845,400.970520 
z"/>
<path fill="#FDFEFF" opacity="1.000000" stroke="none" 
	d="
M244.121490,157.459991 
	C244.102646,151.909866 244.125183,146.817734 244.279388,141.729599 
	C244.479385,135.131119 246.867722,132.065323 253.644409,129.808197 
	C262.486389,129.730865 270.971619,129.693085 279.454315,129.821152 
	C287.137207,129.937149 291.010590,133.886612 291.064575,141.626144 
	C291.142334,152.773865 291.106628,163.922394 291.199219,175.532745 
	C291.212769,178.464279 291.112946,180.933289 291.086090,183.403091 
	C290.992920,191.972855 286.982452,195.935928 278.273041,195.989563 
	C273.159271,196.021072 268.045197,196.012024 262.021545,196.019653 
	C253.598007,196.516678 246.874298,195.554977 244.300476,186.922791 
	C244.274109,177.255112 244.247757,167.587448 244.121490,157.459991 
z"/>
<path fill="#019DEF" opacity="1.000000" stroke="none" 
	d="
M347.320496,408.809082 
	C338.509430,401.694824 330.027557,394.314453 321.470612,387.022217 
	C313.150299,379.931671 304.786896,372.890381 296.350708,365.938751 
	C295.171936,364.967407 293.469574,364.631470 291.644287,364.001343 
	C291.026581,360.035950 291.293152,355.953735 290.431000,352.125702 
	C286.903870,336.465088 268.023743,328.380035 253.427551,338.928864 
	C241.495514,329.224579 229.868454,319.445221 218.308685,309.586945 
	C210.889771,303.260010 203.569962,296.816864 196.256592,289.818054 
	C201.455627,287.431732 203.231720,283.561523 203.238037,278.412994 
	C203.250458,268.274536 203.389694,258.136200 203.476471,247.997833 
	C207.736450,250.974030 212.227249,253.673019 216.206284,256.986603 
	C223.528183,263.083984 230.547455,269.544647 237.696548,275.849701 
	C239.622574,277.548340 241.561935,279.231873 244.062012,281.207550 
	C246.802567,287.827087 249.688065,289.975464 256.181213,290.126556 
	C258.816071,290.187836 261.450073,290.287750 264.058350,290.783630 
	C264.873322,292.494049 265.514282,293.997528 266.596466,295.045410 
	C268.970337,297.344086 271.574463,299.404175 274.072571,301.575470 
	C284.815155,310.912781 295.528595,320.283783 306.300049,329.587677 
	C317.566620,339.319305 329.053528,348.804749 340.085907,358.793457 
	C343.509552,361.893250 346.040161,364.259979 349.927551,360.013672 
	C349.949310,372.677490 350.141632,385.344757 349.883057,398.002869 
	C349.810730,401.542999 348.408813,405.056030 347.320496,408.809082 
z"/>
<path fill="#FFFFFF" opacity="1.000000" stroke="none" 
	d="
M203.375748,247.540283 
	C203.389694,258.136200 203.250458,268.274536 203.238037,278.412994 
	C203.231720,283.561523 201.455627,287.431732 196.117859,289.494446 
	C186.191437,289.875488 176.452377,290.137177 166.718613,290.006195 
	C161.055099,289.929962 157.263687,286.015228 156.786148,280.329132 
	C156.551804,277.538635 156.647827,274.720428 156.536438,271.455933 
	C156.515961,260.307709 156.553360,249.618301 156.534485,238.464081 
	C157.136307,227.214279 160.159241,224.115311 170.578491,223.906937 
	C177.793472,223.891098 184.585907,223.921783 191.377655,224.007690 
	C198.891708,224.102753 203.008362,228.141693 203.201996,235.647507 
	C203.300308,239.457336 203.255264,243.270889 203.375748,247.540283 
z"/>
<path fill="#0190E3" opacity="1.000000" stroke="none" 
	d="
M243.934113,186.920990 
	C246.874298,195.554977 253.598007,196.516678 261.557861,196.089630 
	C262.987976,196.822311 263.944122,197.530243 264.960876,198.136505 
	C269.584778,200.893707 274.604614,203.144073 278.785309,206.456177 
	C288.904236,214.472763 298.726593,222.873306 308.496246,231.318359 
	C318.379456,239.861542 327.961639,248.753799 337.877136,257.258270 
	C341.026520,259.959473 343.638977,264.730652 349.572998,262.052002 
	C349.957031,278.032898 349.973236,294.053741 349.595428,310.583405 
	C347.339752,311.081177 344.995819,311.789490 343.706390,310.924988 
	C339.756409,308.276703 336.120728,305.128296 332.525391,301.988220 
	C321.103790,292.012848 309.827393,281.869568 298.306824,272.010864 
	C296.457489,270.428284 293.644867,269.971436 291.197357,268.532288 
	C291.104004,257.280975 291.143799,246.491074 291.059509,235.702148 
	C291.001190,228.241409 286.778290,224.083420 279.268280,224.015381 
	C271.965118,223.949219 264.654846,224.182419 257.359253,223.938217 
	C252.043716,223.760300 248.078781,225.688950 245.201767,230.065079 
	C240.614838,226.690613 235.881882,223.495621 231.470490,219.905472 
	C221.380646,211.694031 211.451920,203.284744 201.439880,194.977341 
	C200.949402,194.570374 200.289062,194.368134 199.529510,193.729034 
	C200.641037,190.153763 202.865585,186.971420 203.046875,183.676651 
	C203.608276,173.473526 203.392151,163.227646 203.477844,152.998352 
	C205.033005,153.881134 206.808365,154.518509 208.108719,155.685257 
	C219.131927,165.575958 230.060379,175.572205 241.050461,185.500031 
	C241.747803,186.129990 242.722229,186.453247 243.934113,186.920990 
z"/>
<path fill="#FDFEFF" opacity="1.000000" stroke="none" 
	d="
M245.144196,230.479401 
	C248.078781,225.688950 252.043716,223.760300 257.359253,223.938217 
	C264.654846,224.182419 271.965118,223.949219 279.268280,224.015381 
	C286.778290,224.083420 291.001190,228.241409 291.059509,235.702148 
	C291.143799,246.491074 291.104004,257.280975 291.115540,268.990967 
	C291.102295,272.728241 291.118652,275.545441 291.073792,278.361603 
	C290.953918,285.885590 286.946289,289.956848 279.479706,290.119965 
	C274.348572,290.232056 269.216248,290.288666 264.084442,290.370056 
	C261.450073,290.287750 258.816071,290.187836 256.181213,290.126556 
	C249.688065,289.975464 246.802567,287.827087 244.424026,281.218231 
	C244.233719,266.880005 244.207123,252.816055 244.299561,238.752884 
	C244.316803,236.131546 244.811996,233.513367 245.144196,230.479401 
z"/>
<path fill="#FFFFFF" opacity="1.000000" stroke="none" 
	d="
M203.376602,152.540924 
	C203.392151,163.227646 203.608276,173.473526 203.046875,183.676651 
	C202.865585,186.971420 200.641037,190.153763 199.180786,193.694931 
	C195.825912,194.665161 192.661209,195.751633 189.452774,195.901550 
	C183.014832,196.202377 176.552933,196.004333 170.100983,195.989182 
	C159.586639,195.964478 156.728806,193.069839 156.629456,182.385773 
	C156.618698,181.227890 156.601852,180.070084 156.533051,178.455963 
	C156.515686,170.975906 156.553085,163.952118 156.534393,156.463516 
	C156.529587,151.250778 156.674454,146.501526 156.607162,141.755280 
	C156.532440,136.482651 158.574356,132.595200 163.727203,130.142746 
	C173.257217,129.888901 182.515442,129.747726 191.771469,129.836319 
	C199.157135,129.907013 202.998962,133.814911 203.201859,141.172180 
	C203.302109,144.807205 203.255508,148.446274 203.376602,152.540924 
z"/>
<path fill="#0196E9" opacity="1.000000" stroke="none" 
	d="
M264.058350,290.783630 
	C269.216248,290.288666 274.348572,290.232056 279.479706,290.119965 
	C286.946289,289.956848 290.953918,285.885590 291.073792,278.361603 
	C291.118652,275.545441 291.102295,272.728241 291.195679,269.452850 
	C293.644867,269.971436 296.457489,270.428284 298.306824,272.010864 
	C309.827393,281.869568 321.103790,292.012848 332.525391,301.988220 
	C336.120728,305.128296 339.756409,308.276703 343.706390,310.924988 
	C344.995819,311.789490 347.339752,311.081177 349.568359,311.052124 
	C349.955597,327.033051 349.975861,343.054077 349.961853,359.544373 
	C346.040161,364.259979 343.509552,361.893250 340.085907,358.793457 
	C329.053528,348.804749 317.566620,339.319305 306.300049,329.587677 
	C295.528595,320.283783 284.815155,310.912781 274.072571,301.575470 
	C271.574463,299.404175 268.970337,297.344086 266.596466,295.045410 
	C265.514282,293.997528 264.873322,292.494049 264.058350,290.783630 
z"/>
</svg>